<svg width="20" height="20" viewBox="0 0 20 20" fill="none" xmlns="http://www.w3.org/2000/svg">
<path d="M7.625 6.04167H4.14167C3.69829 6.04167 3.4766 6.04167 3.30726 6.12795C3.1583 6.20385 3.03719 6.32496 2.96129 6.47392C2.875 6.64327 2.875 6.86496 2.875 7.30833V15.8583C2.875 16.3017 2.875 16.5234 2.96129 16.6927C3.03719 16.8417 3.1583 16.9628 3.30726 17.0387C3.4766 17.125 3.69829 17.125 4.14167 17.125H7.625M7.625 17.125H12.375M7.625 17.125L7.625 4.14167C7.625 3.69829 7.625 3.4766 7.71129 3.30726C7.78719 3.1583 7.9083 3.03719 8.05726 2.96129C8.2266 2.875 8.44829 2.875 8.89167 2.875L11.1083 2.875C11.5517 2.875 11.7734 2.875 11.9427 2.96129C12.0917 3.03719 12.2128 3.1583 12.2887 3.30726C12.375 3.4766 12.375 3.69829 12.375 4.14167V17.125M12.375 9.20833H15.8583C16.3017 9.20833 16.5234 9.20833 16.6927 9.29462C16.8417 9.37052 16.9628 9.49163 17.0387 9.64059C17.125 9.80994 17.125 10.0316 17.125 10.475V15.8583C17.125 16.3017 17.125 16.5234 17.0387 16.6927C16.9628 16.8417 16.8417 16.9628 16.6927 17.0387C16.5234 17.125 16.3017 17.125 15.8583 17.125H12.375" stroke="white" stroke-width="2" stroke-linecap="round" stroke-linejoin="round"/>
</svg>
