<svg width="22" height="31" viewBox="0 0 22 31" fill="none" xmlns="http://www.w3.org/2000/svg">
<path d="M21.8349 16.2387C21.6918 14.9969 21.4599 13.8012 20.8974 12.6762C19.8874 10.6356 18.0799 9.17624 16.4318 7.67187C15.5049 6.82749 14.7774 6.22749 14.1355 5.14062C13.4999 4.06249 13.608 2.32062 13.0568 1.39874C12.1874 -0.0575083 9.9374 2.67187 9.46865 3.59187C8.85615 4.78749 8.59678 6.07937 8.58803 7.41749C8.57928 8.82999 8.83803 10.2869 8.55928 11.6856C8.3524 12.7269 7.81553 13.8569 6.71053 14.1675C6.22865 14.3031 5.6849 14.26 5.32303 13.8875C5.17382 13.7395 5.0681 13.5533 5.0174 13.3494C4.9824 13.1975 4.50428 12.0506 3.7674 12.4462C3.06365 12.825 2.2674 14.2469 1.9699 14.7312C1.42209 15.6138 0.967561 16.5509 0.613652 17.5275C-0.0655821 19.4059 -0.147014 21.4485 0.380527 23.375C0.888027 25.1987 1.93803 26.9319 3.39178 28.1537C3.55746 28.2912 3.7302 28.4199 3.90928 28.5394C5.35595 29.5113 7.06079 30.0273 8.80365 30.0206H11.3749C13.333 30.0206 15.2605 29.4581 16.8749 28.3506C21.2212 25.3644 21.8324 19.99 21.8324 19.99C22.0318 18.7419 21.9793 17.4906 21.8349 16.2387ZM7.48615 18.3506C7.75865 17.9525 8.3499 17.9187 8.63803 18.3062C8.77374 18.4841 8.94376 18.6328 9.13803 18.7437C9.43561 18.9154 9.78581 18.9721 10.1224 18.903C10.4589 18.8339 10.7584 18.6438 10.9643 18.3687C11.7105 17.3969 11.8599 15.9369 11.8555 14.8894C11.8556 14.7613 11.8932 14.6361 11.9636 14.5292C12.0341 14.4223 12.1343 14.3384 12.252 14.2879C12.3696 14.2374 12.4995 14.2224 12.6255 14.2449C12.7515 14.2674 12.8682 14.3263 12.9612 14.4144C15.2437 16.5562 15.1018 20.7844 15.1018 20.7844C15.1018 20.7844 15.328 25.2475 11.2849 26.0562C9.26365 26.4606 8.06678 25.8619 7.37553 25.1625C6.8174 24.6 6.49678 23.8437 6.4174 23.0537C6.19053 20.79 6.8749 19.25 7.48615 18.3506Z" fill="#3B82F7"/>
</svg>
