<svg width="32" height="33" viewBox="0 0 32 33" fill="none" xmlns="http://www.w3.org/2000/svg">
<path d="M16 32.5C23.6588 32.5 30 26.0981 30 18.3965C30 15.1748 28.8882 12.1882 27.0353 9.79616L28.1059 8.70384C28.4216 8.38582 28.6 7.95718 28.6 7.58385C28.6 6.80955 27.9824 6.18733 27.1863 6.18733C26.7196 6.18733 26.3902 6.3256 26.0608 6.64362L25.0176 7.66682C22.9314 5.86931 20.3098 4.6802 17.4549 4.376V3.02096C17.4549 2.19135 16.8098 1.5 15.9863 1.5C15.1902 1.5 14.5176 2.19135 14.5176 3.02096V4.376C7.53137 5.12266 2 11.1927 2 18.3965C2 26.0981 8.3549 32.5 16 32.5ZM16 30.1494C9.52157 30.1494 4.34706 24.9228 4.34706 18.3965C4.34706 11.8702 9.50784 6.64362 15.9863 6.64362C22.4647 6.64362 27.6529 11.8702 27.6667 18.3965C27.6804 24.9228 22.4784 30.1494 16 30.1494ZM16 20.6365C17.2216 20.6365 18.2098 19.6409 18.2098 18.4103C18.2098 17.5393 17.7157 16.7788 16.9471 16.4054V9.53345C16.9471 8.9942 16.5216 8.57939 15.9863 8.57939C15.451 8.57939 15.0392 8.9942 15.0392 9.53345V16.3916C14.2843 16.7926 13.7902 17.5393 13.7902 18.4103C13.7902 19.6409 14.7647 20.6365 16 20.6365Z" fill="#4FADF8"/>
</svg>
