<svg width="32" height="33" viewBox="0 0 32 33" fill="none" xmlns="http://www.w3.org/2000/svg">
<path d="M10.7501 9.005C11.1876 8.3625 11.422 6.82188 10.4195 5.87313C10.1201 5.58938 9.54447 5.36375 8.9051 5.51875C8.00572 5.73688 7.39947 6.94688 7.39697 7.8C7.39697 8.78688 7.82197 9.25563 8.33447 9.54438C9.20197 10.0306 10.167 9.54438 10.2195 9.49688C10.4051 9.36188 10.5657 9.27313 10.7501 9.005Z" fill="#68CE67"/>
<path d="M26.8349 17.2387C26.6918 15.9969 26.4599 14.8012 25.8974 13.6762C24.8874 11.6356 23.0799 10.1762 21.4318 8.67187C20.5049 7.82749 19.7774 7.22749 19.1355 6.14062C18.4999 5.06249 18.608 3.32062 18.0568 2.39874C17.1874 0.942492 14.9374 3.67187 14.4687 4.59187C13.8562 5.78749 13.5968 7.07937 13.588 8.41749C13.5793 9.82999 13.838 11.2869 13.5593 12.6856C13.3524 13.7269 12.8155 14.8569 11.7105 15.1675C11.2287 15.3031 10.6849 15.26 10.323 14.8875C10.1738 14.7395 10.0681 14.5533 10.0174 14.3494C9.9824 14.1975 9.50428 13.0506 8.7674 13.4462C8.06365 13.825 7.2674 15.2469 6.9699 15.7312C6.42209 16.6138 5.96756 17.5509 5.61365 18.5275C4.93442 20.4059 4.85299 22.4485 5.38053 24.375C5.88803 26.1987 6.93803 27.9319 8.39178 29.1537C8.55746 29.2912 8.7302 29.4199 8.90928 29.5394C10.356 30.5113 12.0608 31.0273 13.8037 31.0206H16.3749C18.333 31.0206 20.2605 30.4581 21.8749 29.3506C26.2212 26.3644 26.8324 20.99 26.8324 20.99C27.0318 19.7419 26.9793 18.4906 26.8349 17.2387ZM12.4862 19.3506C12.7587 18.9525 13.3499 18.9187 13.638 19.3062C13.7737 19.4841 13.9438 19.6328 14.138 19.7437C14.4356 19.9154 14.7858 19.9721 15.1224 19.903C15.4589 19.8339 15.7584 19.6438 15.9643 19.3687C16.7105 18.3969 16.8599 16.9369 16.8555 15.8894C16.8556 15.7613 16.8932 15.6361 16.9636 15.5292C17.0341 15.4223 17.1343 15.3384 17.252 15.2879C17.3696 15.2374 17.4995 15.2224 17.6255 15.2449C17.7515 15.2674 17.8682 15.3263 17.9612 15.4144C20.2437 17.5562 20.1018 21.7844 20.1018 21.7844C20.1018 21.7844 20.328 26.2475 16.2849 27.0562C14.2637 27.4606 13.0668 26.8619 12.3755 26.1625C11.8174 25.6 11.4968 24.8437 11.4174 24.0537C11.1905 21.79 11.8749 20.25 12.4862 19.3506Z" fill="#68CE67"/>
</svg>
