<svg width="51" height="30" viewBox="0 0 51 30" fill="none" xmlns="http://www.w3.org/2000/svg">
<mask id="path-1-outside-1_965_657" maskUnits="userSpaceOnUse" x="0.5" y="2.5" width="50" height="23" fill="black">
<rect fill="white" x="0.5" y="2.5" width="50" height="23"/>
<path d="M8.72804 22.6743C7.2758 22.6743 6.14306 22.3403 5.32981 21.6722C4.51656 20.9897 4.10994 20.1111 4.10994 19.0364C4.10994 17.773 4.64 16.8581 5.70013 16.2917C6.77478 15.7253 8.34319 15.5293 10.4054 15.7036C10.3037 15.0355 10.0931 14.5853 9.77364 14.353C9.45415 14.1061 9.06931 13.9827 8.61912 13.9827C8.25606 13.9827 7.95109 14.0044 7.70421 14.048C7.47185 14.0771 7.25402 14.1134 7.05071 14.1569C6.84739 14.2005 6.60052 14.2223 6.31007 14.2223C5.91797 14.2223 5.60574 14.1569 5.37338 14.0262C5.14102 13.881 5.02484 13.5978 5.02484 13.1767C5.02484 12.5813 5.27898 12.1456 5.78727 11.8697C6.31007 11.5792 7.13058 11.434 8.2488 11.434C10.0205 11.434 11.3348 11.9423 12.1916 12.9588C13.0484 13.9609 13.4768 15.3042 13.4768 16.9888C13.4768 18.9348 13.121 20.3725 12.4094 21.3019C11.7124 22.2168 10.4852 22.6743 8.72804 22.6743ZM7.24676 19.0364C7.24676 19.8642 7.80587 20.2781 8.92409 20.2781C9.28714 20.2781 9.57033 20.2127 9.77364 20.082C9.97695 19.9513 10.1222 19.6899 10.2093 19.2978C10.311 18.9057 10.3836 18.3176 10.4271 17.5334C10.3545 17.606 10.2601 17.6568 10.144 17.6859C10.0278 17.7149 9.9116 17.7294 9.79543 17.7294C8.83695 17.7294 8.16893 17.8238 7.79135 18.0126C7.42829 18.1869 7.24676 18.5281 7.24676 19.0364ZM16.7054 9.56061C16.1681 9.56061 15.7179 9.38634 15.3548 9.03781C14.9917 8.68927 14.8102 8.26086 14.8102 7.75258C14.8102 7.21526 14.9917 6.77233 15.3548 6.42379C15.7179 6.07526 16.1681 5.90099 16.7054 5.90099C17.2572 5.90099 17.7074 6.07526 18.056 6.42379C18.419 6.77233 18.6005 7.21526 18.6005 7.75258C18.6005 8.26086 18.419 8.68927 18.056 9.03781C17.7074 9.38634 17.2572 9.56061 16.7054 9.56061ZM18.2738 21.2148C18.2738 22.1878 17.7655 22.6743 16.749 22.6743C16.2552 22.6743 15.8631 22.5581 15.5726 22.3257C15.2822 22.0789 15.137 21.7085 15.137 21.2148V12.9153C15.137 12.4506 15.2532 12.0875 15.4855 11.8261C15.7324 11.5647 16.139 11.434 16.7054 11.434C17.2718 11.434 17.6711 11.5647 17.9035 11.8261C18.1504 12.0875 18.2738 12.4506 18.2738 12.9153V21.2148ZM23.0485 22.6743C21.9738 22.6743 21.4365 22.1878 21.4365 21.2148V10.127H20.2166C19.7664 10.127 19.4251 9.98176 19.1928 9.69131C18.9749 9.38634 18.866 9.05233 18.866 8.68927C18.866 8.32622 18.9749 7.99946 19.1928 7.70902C19.4251 7.40405 19.7664 7.25156 20.2166 7.25156H22.9831C24.0432 7.25156 24.5733 7.73806 24.5733 8.71106V21.2148C24.5733 21.7085 24.4499 22.0789 24.203 22.3257C23.9706 22.5581 23.5858 22.6743 23.0485 22.6743ZM32.15 22.6743C31.4675 22.6743 30.7995 22.5654 30.146 22.3475C29.4925 22.1152 28.897 21.7448 28.3597 21.2366C27.8369 20.7283 27.4158 20.0603 27.0963 19.2325C26.7913 18.4047 26.6388 17.3881 26.6388 16.1828C26.6388 15.05 26.7477 13.9464 26.9656 12.8717C27.1834 11.7825 27.5319 10.795 28.0112 9.90915C28.5049 9.02329 29.1512 8.31895 29.9499 7.79615C30.7632 7.27335 31.7579 7.01195 32.9342 7.01195C34.0379 7.01195 34.8004 7.12812 35.2215 7.36048C35.6572 7.57832 35.875 7.97768 35.875 8.55857C35.875 9.02329 35.7153 9.3573 35.3958 9.56061C35.0908 9.7494 34.6334 9.8438 34.0234 9.8438C32.7745 9.8438 31.8741 10.0471 31.3223 10.4537C30.7704 10.8458 30.4219 11.5066 30.2767 12.436C30.5235 12.2763 30.814 12.1528 31.148 12.0657C31.482 11.9641 31.8741 11.9132 32.3243 11.9132C33.2683 11.9132 34.096 12.102 34.8076 12.4796C35.5192 12.8427 36.0783 13.4163 36.485 14.2005C36.8916 14.9702 37.0949 15.9722 37.0949 17.2066C37.0949 18.4991 36.8553 19.552 36.376 20.3652C35.8968 21.1639 35.2796 21.7521 34.5244 22.1297C33.7838 22.4927 32.9923 22.6743 32.15 22.6743ZM32.1065 19.7988C32.6293 19.7988 33.0286 19.6754 33.3046 19.4285C33.595 19.1816 33.7983 18.8622 33.9145 18.4701C34.0307 18.0634 34.0888 17.6423 34.0888 17.2066C34.0888 16.7564 34.0307 16.328 33.9145 15.9214C33.7983 15.5148 33.595 15.1808 33.3046 14.9193C33.0286 14.6579 32.6293 14.5272 32.1065 14.5272C31.5982 14.5272 31.1843 14.6579 30.8648 14.9193C30.5598 15.1808 30.342 15.5148 30.2113 15.9214C30.0806 16.328 30.0153 16.7564 30.0153 17.2066C30.0153 17.6423 30.0806 18.0634 30.2113 18.4701C30.342 18.8622 30.5598 19.1816 30.8648 19.4285C31.1843 19.6754 31.5982 19.7988 32.1065 19.7988ZM39.5076 22.5C39.1445 22.5 38.8396 22.3548 38.5927 22.0643C38.3603 21.7739 38.2441 21.4181 38.2441 20.9969C38.2441 20.721 38.3095 20.4741 38.4402 20.2563L41.7948 15.0065C41.9546 14.7596 42.0853 14.5853 42.187 14.4837C42.2886 14.382 42.3975 14.3094 42.5137 14.2658H39.464C38.491 14.2658 38.0045 13.8229 38.0045 12.9371C38.0045 12.0512 38.491 11.6083 39.464 11.6083H44.8445C45.2366 11.6083 45.5634 11.7535 45.8248 12.0439C46.0862 12.3344 46.2169 12.6902 46.2169 13.1113C46.2169 13.3872 46.1515 13.6341 46.0208 13.852L42.4701 19.1453C42.2087 19.552 41.911 19.7843 41.577 19.8424H45.2802C46.2532 19.8424 46.7397 20.2999 46.7397 21.2148C46.7397 22.0716 46.2532 22.5 45.2802 22.5H39.5076Z"/>
</mask>
<path d="M8.72804 22.6743C7.2758 22.6743 6.14306 22.3403 5.32981 21.6722C4.51656 20.9897 4.10994 20.1111 4.10994 19.0364C4.10994 17.773 4.64 16.8581 5.70013 16.2917C6.77478 15.7253 8.34319 15.5293 10.4054 15.7036C10.3037 15.0355 10.0931 14.5853 9.77364 14.353C9.45415 14.1061 9.06931 13.9827 8.61912 13.9827C8.25606 13.9827 7.95109 14.0044 7.70421 14.048C7.47185 14.0771 7.25402 14.1134 7.05071 14.1569C6.84739 14.2005 6.60052 14.2223 6.31007 14.2223C5.91797 14.2223 5.60574 14.1569 5.37338 14.0262C5.14102 13.881 5.02484 13.5978 5.02484 13.1767C5.02484 12.5813 5.27898 12.1456 5.78727 11.8697C6.31007 11.5792 7.13058 11.434 8.2488 11.434C10.0205 11.434 11.3348 11.9423 12.1916 12.9588C13.0484 13.9609 13.4768 15.3042 13.4768 16.9888C13.4768 18.9348 13.121 20.3725 12.4094 21.3019C11.7124 22.2168 10.4852 22.6743 8.72804 22.6743ZM7.24676 19.0364C7.24676 19.8642 7.80587 20.2781 8.92409 20.2781C9.28714 20.2781 9.57033 20.2127 9.77364 20.082C9.97695 19.9513 10.1222 19.6899 10.2093 19.2978C10.311 18.9057 10.3836 18.3176 10.4271 17.5334C10.3545 17.606 10.2601 17.6568 10.144 17.6859C10.0278 17.7149 9.9116 17.7294 9.79543 17.7294C8.83695 17.7294 8.16893 17.8238 7.79135 18.0126C7.42829 18.1869 7.24676 18.5281 7.24676 19.0364ZM16.7054 9.56061C16.1681 9.56061 15.7179 9.38634 15.3548 9.03781C14.9917 8.68927 14.8102 8.26086 14.8102 7.75258C14.8102 7.21526 14.9917 6.77233 15.3548 6.42379C15.7179 6.07526 16.1681 5.90099 16.7054 5.90099C17.2572 5.90099 17.7074 6.07526 18.056 6.42379C18.419 6.77233 18.6005 7.21526 18.6005 7.75258C18.6005 8.26086 18.419 8.68927 18.056 9.03781C17.7074 9.38634 17.2572 9.56061 16.7054 9.56061ZM18.2738 21.2148C18.2738 22.1878 17.7655 22.6743 16.749 22.6743C16.2552 22.6743 15.8631 22.5581 15.5726 22.3257C15.2822 22.0789 15.137 21.7085 15.137 21.2148V12.9153C15.137 12.4506 15.2532 12.0875 15.4855 11.8261C15.7324 11.5647 16.139 11.434 16.7054 11.434C17.2718 11.434 17.6711 11.5647 17.9035 11.8261C18.1504 12.0875 18.2738 12.4506 18.2738 12.9153V21.2148ZM23.0485 22.6743C21.9738 22.6743 21.4365 22.1878 21.4365 21.2148V10.127H20.2166C19.7664 10.127 19.4251 9.98176 19.1928 9.69131C18.9749 9.38634 18.866 9.05233 18.866 8.68927C18.866 8.32622 18.9749 7.99946 19.1928 7.70902C19.4251 7.40405 19.7664 7.25156 20.2166 7.25156H22.9831C24.0432 7.25156 24.5733 7.73806 24.5733 8.71106V21.2148C24.5733 21.7085 24.4499 22.0789 24.203 22.3257C23.9706 22.5581 23.5858 22.6743 23.0485 22.6743ZM32.15 22.6743C31.4675 22.6743 30.7995 22.5654 30.146 22.3475C29.4925 22.1152 28.897 21.7448 28.3597 21.2366C27.8369 20.7283 27.4158 20.0603 27.0963 19.2325C26.7913 18.4047 26.6388 17.3881 26.6388 16.1828C26.6388 15.05 26.7477 13.9464 26.9656 12.8717C27.1834 11.7825 27.5319 10.795 28.0112 9.90915C28.5049 9.02329 29.1512 8.31895 29.9499 7.79615C30.7632 7.27335 31.7579 7.01195 32.9342 7.01195C34.0379 7.01195 34.8004 7.12812 35.2215 7.36048C35.6572 7.57832 35.875 7.97768 35.875 8.55857C35.875 9.02329 35.7153 9.3573 35.3958 9.56061C35.0908 9.7494 34.6334 9.8438 34.0234 9.8438C32.7745 9.8438 31.8741 10.0471 31.3223 10.4537C30.7704 10.8458 30.4219 11.5066 30.2767 12.436C30.5235 12.2763 30.814 12.1528 31.148 12.0657C31.482 11.9641 31.8741 11.9132 32.3243 11.9132C33.2683 11.9132 34.096 12.102 34.8076 12.4796C35.5192 12.8427 36.0783 13.4163 36.485 14.2005C36.8916 14.9702 37.0949 15.9722 37.0949 17.2066C37.0949 18.4991 36.8553 19.552 36.376 20.3652C35.8968 21.1639 35.2796 21.7521 34.5244 22.1297C33.7838 22.4927 32.9923 22.6743 32.15 22.6743ZM32.1065 19.7988C32.6293 19.7988 33.0286 19.6754 33.3046 19.4285C33.595 19.1816 33.7983 18.8622 33.9145 18.4701C34.0307 18.0634 34.0888 17.6423 34.0888 17.2066C34.0888 16.7564 34.0307 16.328 33.9145 15.9214C33.7983 15.5148 33.595 15.1808 33.3046 14.9193C33.0286 14.6579 32.6293 14.5272 32.1065 14.5272C31.5982 14.5272 31.1843 14.6579 30.8648 14.9193C30.5598 15.1808 30.342 15.5148 30.2113 15.9214C30.0806 16.328 30.0153 16.7564 30.0153 17.2066C30.0153 17.6423 30.0806 18.0634 30.2113 18.4701C30.342 18.8622 30.5598 19.1816 30.8648 19.4285C31.1843 19.6754 31.5982 19.7988 32.1065 19.7988ZM39.5076 22.5C39.1445 22.5 38.8396 22.3548 38.5927 22.0643C38.3603 21.7739 38.2441 21.4181 38.2441 20.9969C38.2441 20.721 38.3095 20.4741 38.4402 20.2563L41.7948 15.0065C41.9546 14.7596 42.0853 14.5853 42.187 14.4837C42.2886 14.382 42.3975 14.3094 42.5137 14.2658H39.464C38.491 14.2658 38.0045 13.8229 38.0045 12.9371C38.0045 12.0512 38.491 11.6083 39.464 11.6083H44.8445C45.2366 11.6083 45.5634 11.7535 45.8248 12.0439C46.0862 12.3344 46.2169 12.6902 46.2169 13.1113C46.2169 13.3872 46.1515 13.6341 46.0208 13.852L42.4701 19.1453C42.2087 19.552 41.911 19.7843 41.577 19.8424H45.2802C46.2532 19.8424 46.7397 20.2999 46.7397 21.2148C46.7397 22.0716 46.2532 22.5 45.2802 22.5H39.5076Z" fill="white"/>
<path d="M5.32981 21.6722L3.52557 23.822L3.53693 23.8315L3.54839 23.8409L5.32981 21.6722ZM5.70013 16.2917L4.39162 13.8089L4.38462 13.8126L4.37765 13.8163L5.70013 16.2917ZM10.4054 15.7036L10.169 18.5001L13.7154 18.7998L13.18 15.2813L10.4054 15.7036ZM9.77364 14.353L8.05759 16.5737L8.0899 16.5987L8.12292 16.6227L9.77364 14.353ZM7.70421 14.048L8.05232 16.8329L8.1224 16.8241L8.19195 16.8118L7.70421 14.048ZM5.37338 14.0262L3.88592 16.4062L3.94092 16.4405L3.99744 16.4723L5.37338 14.0262ZM5.78727 11.8697L7.12624 14.3362L7.13827 14.3297L7.15024 14.323L5.78727 11.8697ZM12.1916 12.9588L10.0457 14.7676L10.0521 14.7752L10.0585 14.7828L12.1916 12.9588ZM12.4094 21.3019L10.181 19.5958L10.177 19.601L12.4094 21.3019ZM9.77364 20.082L8.25599 17.7212L8.25599 17.7212L9.77364 20.082ZM10.2093 19.2978L7.4926 18.5935L7.48027 18.641L7.46961 18.689L10.2093 19.2978ZM10.4271 17.5334L13.2294 17.689L13.6368 10.3546L8.44262 15.5489L10.4271 17.5334ZM10.144 17.6859L9.46328 14.9631L9.46327 14.9631L10.144 17.6859ZM7.79135 18.0126L9.00582 20.5428L9.02622 20.533L9.04647 20.5228L7.79135 18.0126ZM8.72804 19.8677C7.68066 19.8677 7.26114 19.6267 7.11123 19.5035L3.54839 23.8409C5.02499 25.0538 6.87094 25.4808 8.72804 25.4808V19.8677ZM7.13405 19.5225C7.01244 19.4204 6.97579 19.3526 6.96189 19.3226C6.94756 19.2916 6.91647 19.2118 6.91647 19.0364H1.3034C1.3034 20.9289 2.06806 22.5987 3.52557 23.822L7.13405 19.5225ZM6.91647 19.0364C6.91647 18.9163 6.92908 18.8474 6.93629 18.8178C6.9429 18.7906 6.94579 18.7925 6.93589 18.8096C6.92564 18.8273 6.91574 18.837 6.91737 18.8354C6.92072 18.8323 6.94941 18.8062 7.02261 18.7671L4.37765 13.8163C3.4512 14.3112 2.6405 15.0267 2.07908 15.9957C1.52207 16.9571 1.3034 18.0072 1.3034 19.0364H6.91647ZM7.00865 18.7745C7.38101 18.5783 8.30786 18.3428 10.169 18.5001L10.6417 12.907C8.37853 12.7157 6.16856 12.8724 4.39162 13.8089L7.00865 18.7745ZM13.18 15.2813C13.0405 14.3652 12.6604 12.9821 11.4244 12.0832L8.12292 16.6227C7.81218 16.3967 7.67378 16.1497 7.62901 16.054C7.58802 15.9664 7.60688 15.9688 7.63077 16.1258L13.18 15.2813ZM11.4897 12.1322C10.6223 11.4619 9.61502 11.1761 8.61912 11.1761V16.7892C8.58605 16.7892 8.50242 16.7843 8.3882 16.7477C8.27059 16.7099 8.15599 16.6498 8.05759 16.5737L11.4897 12.1322ZM8.61912 11.1761C8.15827 11.1761 7.67824 11.2027 7.21647 11.2842L8.19195 16.8118C8.22394 16.8062 8.35385 16.7892 8.61912 16.7892V11.1761ZM7.3561 11.2631C7.05307 11.301 6.75448 11.3502 6.46266 11.4127L7.63876 16.9012C7.75356 16.8766 7.89064 16.8531 8.05232 16.8329L7.3561 11.2631ZM6.46266 11.4127C6.49254 11.4063 6.49612 11.4076 6.46639 11.4103C6.43746 11.4128 6.38652 11.4157 6.31007 11.4157V17.0288C6.72672 17.0288 7.18298 16.9988 7.63876 16.9012L6.46266 11.4127ZM6.31007 11.4157C6.26511 11.4157 6.28662 11.4116 6.35678 11.4263C6.42803 11.4412 6.57194 11.4803 6.74931 11.5801L3.99744 16.4723C4.80196 16.9249 5.64718 17.0288 6.31007 17.0288V11.4157ZM6.86084 11.6463C7.30053 11.9211 7.5709 12.3043 7.70849 12.6397C7.83065 12.9374 7.83138 13.1502 7.83138 13.1767H2.21831C2.21831 14.0144 2.45484 15.5117 3.88592 16.4062L6.86084 11.6463ZM7.83138 13.1767C7.83138 13.2856 7.80487 13.5343 7.63967 13.8175C7.47194 14.105 7.25584 14.2658 7.12624 14.3362L4.44829 9.40313C3.81041 9.74941 3.2131 10.266 2.79122 10.9892C2.37188 11.7081 2.21831 12.4724 2.21831 13.1767H7.83138ZM7.15024 14.323C7.05582 14.3755 7.06885 14.3445 7.28388 14.3065C7.4887 14.2702 7.802 14.2405 8.2488 14.2405V8.62746C7.00207 8.62746 5.58856 8.76949 4.42429 9.41631L7.15024 14.323ZM8.2488 14.2405C9.48556 14.2405 9.88552 14.5776 10.0457 14.7676L14.3376 11.1501C12.7841 9.30697 10.5555 8.62746 8.2488 8.62746V14.2405ZM10.0585 14.7828C10.3712 15.1484 10.6703 15.7826 10.6703 16.9888H16.2834C16.2834 14.8257 15.7256 12.7733 14.3247 11.1349L10.0585 14.7828ZM10.6703 16.9888C10.6703 18.6911 10.341 19.3869 10.181 19.5958L14.6378 23.008C15.9011 21.358 16.2834 19.1784 16.2834 16.9888H10.6703ZM10.177 19.601C10.1764 19.6019 10.1758 19.6026 10.1743 19.604C10.1728 19.6055 10.1679 19.6101 10.1576 19.6174C10.1378 19.6315 10.0867 19.6639 9.98597 19.7014C9.77291 19.7808 9.37927 19.8677 8.72804 19.8677V25.4808C10.8869 25.4808 13.1807 24.9205 14.6418 23.0028L10.177 19.601ZM4.44022 19.0364C4.44022 20.149 4.86103 21.383 5.99627 22.2234C6.9735 22.9468 8.10078 23.0846 8.92409 23.0846V17.4716C8.62917 17.4716 8.91779 17.4024 9.33592 17.7119C9.57331 17.8877 9.77897 18.1349 9.91065 18.4273C10.0351 18.7038 10.0533 18.93 10.0533 19.0364H4.44022ZM8.92409 23.0846C9.57283 23.0846 10.4616 22.9762 11.2913 22.4428L8.25599 17.7212C8.47487 17.5805 8.66634 17.5201 8.77769 17.4944C8.8868 17.4692 8.94337 17.4716 8.92409 17.4716V23.0846ZM11.2913 22.4428C12.4205 21.7169 12.8018 20.5691 12.949 19.9067L7.46961 18.689C7.46596 18.7054 7.48684 18.5957 7.58169 18.425C7.68136 18.2456 7.88636 17.9589 8.25599 17.7212L11.2913 22.4428ZM12.926 20.0022C13.0994 19.3333 13.1832 18.5203 13.2294 17.689L7.62493 17.3777C7.58398 18.1149 7.52251 18.4781 7.4926 18.5935L12.926 20.0022ZM8.44262 15.5489C8.78579 15.2057 9.16908 15.0367 9.46328 14.9631L10.8246 20.4086C11.3512 20.277 11.9233 20.0063 12.4117 19.5179L8.44262 15.5489ZM9.46327 14.9631C9.56284 14.9382 9.67516 14.9229 9.79543 14.9229V20.536C10.1481 20.536 10.4927 20.4916 10.8246 20.4086L9.46327 14.9631ZM9.79543 14.9229C8.82043 14.9229 7.55669 14.9921 6.53623 15.5024L9.04647 20.5228C8.935 20.5786 8.8642 20.5972 8.86266 20.5976C8.85801 20.5989 8.88962 20.5902 8.96823 20.5791C9.13072 20.5562 9.39776 20.536 9.79543 20.536V14.9229ZM6.57687 15.4824C5.87987 15.817 5.28925 16.3591 4.90509 17.0813C4.54125 17.7653 4.44022 18.4623 4.44022 19.0364H10.0533C10.0533 19.1022 10.043 19.3745 9.86072 19.7172C9.65809 20.0982 9.33977 20.3825 9.00582 20.5428L6.57687 15.4824ZM15.3548 9.03781L17.2984 7.01321L17.2984 7.01321L15.3548 9.03781ZM15.3548 6.42379L17.2984 8.44839L17.2984 8.44839L15.3548 6.42379ZM18.056 6.42379L16.0714 8.40831L16.0917 8.42856L16.1123 8.44839L18.056 6.42379ZM18.056 9.03781L16.1123 7.01321L16.0917 7.03304L16.0714 7.05329L18.056 9.03781ZM15.5726 22.3257L13.755 24.4641L13.7868 24.4912L13.8194 24.5173L15.5726 22.3257ZM15.4855 11.8261L13.4451 9.89906L13.416 9.92987L13.3879 9.96153L15.4855 11.8261ZM17.9035 11.8261L15.8058 13.6907L15.834 13.7223L15.8631 13.7531L17.9035 11.8261ZM16.7054 6.75408C16.7442 6.75408 16.8453 6.76131 16.9779 6.81263C17.1138 6.86524 17.2237 6.94145 17.2984 7.01321L13.4112 11.0624C14.3346 11.9489 15.4975 12.3671 16.7054 12.3671V6.75408ZM17.2984 7.01321C17.3685 7.08051 17.4612 7.1965 17.5305 7.36013C17.5996 7.52317 17.6168 7.66553 17.6168 7.75258H12.0037C12.0037 9.01647 12.4907 10.1787 13.4112 11.0624L17.2984 7.01321ZM17.6168 7.75258C17.6168 7.80434 17.6069 7.92644 17.5433 8.08169C17.478 8.24089 17.3844 8.36582 17.2984 8.44839L13.4112 4.39919C12.4566 5.3156 12.0037 6.5087 12.0037 7.75258H17.6168ZM17.2984 8.44839C17.2237 8.52015 17.1138 8.59636 16.9779 8.64897C16.8453 8.70029 16.7442 8.70752 16.7054 8.70752V3.09445C15.4975 3.09445 14.3346 3.51274 13.4112 4.39919L17.2984 8.44839ZM16.7054 8.70752C16.6839 8.70752 16.5846 8.7035 16.4438 8.64897C16.2968 8.59207 16.1674 8.50429 16.0714 8.40831L20.0405 4.43927C19.1006 3.49938 17.9043 3.09445 16.7054 3.09445V8.70752ZM16.1123 8.44839C16.0263 8.36582 15.9327 8.24089 15.8675 8.08169C15.8039 7.92644 15.794 7.80434 15.794 7.75258H21.4071C21.4071 6.5087 20.9542 5.3156 19.9996 4.39919L16.1123 8.44839ZM15.794 7.75258C15.794 7.66553 15.8112 7.52317 15.8803 7.36013C15.9496 7.1965 16.0422 7.08051 16.1123 7.01321L19.9996 11.0624C20.9201 10.1787 21.4071 9.01647 21.4071 7.75258H15.794ZM16.0714 7.05329C16.1674 6.95731 16.2968 6.86953 16.4438 6.81263C16.5846 6.7581 16.6839 6.75408 16.7054 6.75408V12.3671C17.9043 12.3671 19.1006 11.9622 20.0405 11.0223L16.0714 7.05329ZM15.4673 21.2148C15.4673 21.2146 15.4673 21.2084 15.4681 21.1965C15.4689 21.1846 15.4706 21.1664 15.4742 21.1425C15.4813 21.0951 15.4962 21.0218 15.5281 20.9303C15.5959 20.7355 15.7279 20.4964 15.952 20.2819C16.4131 19.8405 16.8546 19.8677 16.749 19.8677V25.4808C17.6599 25.4808 18.8638 25.2648 19.8332 24.3369C20.8256 23.387 21.0803 22.166 21.0803 21.2148H15.4673ZM16.749 19.8677C16.6832 19.8677 16.9768 19.8549 17.3259 20.1342L13.8194 24.5173C14.7494 25.2613 15.8271 25.4808 16.749 25.4808V19.8677ZM17.3903 20.1873C17.6135 20.3771 17.7698 20.6116 17.8587 20.8382C17.9409 21.0478 17.9435 21.1927 17.9435 21.2148H12.3304C12.3304 22.2713 12.6626 23.5356 13.755 24.4641L17.3903 20.1873ZM17.9435 21.2148V12.9153H12.3304V21.2148H17.9435ZM17.9435 12.9153C17.9435 12.9153 17.9435 12.9367 17.938 12.9759C17.9325 13.0153 17.921 13.0751 17.8971 13.1498C17.8467 13.3073 17.7497 13.5033 17.5831 13.6907L13.3879 9.96153C12.5664 10.8857 12.3304 11.9929 12.3304 12.9153H17.9435ZM17.5259 13.7531C17.2685 14.0256 16.9969 14.1517 16.8345 14.2039C16.6866 14.2515 16.6247 14.2405 16.7054 14.2405V8.62746C15.8009 8.62746 14.4604 8.82401 13.4451 9.89906L17.5259 13.7531ZM16.7054 14.2405C16.7882 14.2405 16.7176 14.252 16.5567 14.1993C16.3796 14.1414 16.0804 13.9996 15.8058 13.6907L20.0011 9.96154C18.9823 8.8154 17.5892 8.62746 16.7054 8.62746V14.2405ZM15.8631 13.7531C15.6917 13.5717 15.5833 13.372 15.5241 13.1979C15.4685 13.0343 15.4673 12.9273 15.4673 12.9153H21.0803C21.0803 11.951 20.8139 10.8203 19.9439 9.89906L15.8631 13.7531ZM15.4673 12.9153V21.2148H21.0803V12.9153H15.4673ZM21.4365 10.127H24.243V7.32045H21.4365V10.127ZM19.1928 9.69131L16.909 11.3226L16.9535 11.3848L17.0013 11.4445L19.1928 9.69131ZM19.1928 7.70902L16.9604 6.00814L16.9539 6.01659L16.9476 6.0251L19.1928 7.70902ZM24.203 22.3257L22.2185 20.3412L22.2185 20.3412L24.203 22.3257ZM23.0485 19.8677C22.8786 19.8677 23.2751 19.8233 23.7232 20.2289C24.2241 20.6825 24.243 21.1927 24.243 21.2148H18.6299C18.6299 22.2098 18.9175 23.4498 19.9558 24.3899C20.9411 25.282 22.1437 25.4808 23.0485 25.4808V19.8677ZM24.243 21.2148V10.127H18.6299V21.2148H24.243ZM21.4365 7.32045H20.2166V12.9335H21.4365V7.32045ZM20.2166 7.32045C20.2903 7.32045 20.4792 7.33234 20.7219 7.43562C20.9797 7.54534 21.2114 7.72188 21.3843 7.93809L17.0013 11.4445C17.8791 12.5418 19.1126 12.9335 20.2166 12.9335V7.32045ZM21.4766 8.06005C21.5227 8.12468 21.5761 8.21959 21.616 8.34199C21.6562 8.46525 21.6726 8.58528 21.6726 8.68927H16.0595C16.0595 9.65712 16.3629 10.558 16.909 11.3226L21.4766 8.06005ZM21.6726 8.68927C21.6726 8.79298 21.6562 8.92146 21.6102 9.05942C21.5642 9.19738 21.5002 9.30997 21.438 9.39294L16.9476 6.0251C16.3654 6.80134 16.0595 7.71897 16.0595 8.68927H21.6726ZM21.4252 9.4099C21.2643 9.62106 21.0375 9.80786 20.7679 9.92832C20.5125 10.0425 20.3069 10.0581 20.2166 10.0581V4.44503C19.0627 4.44503 17.8199 4.88001 16.9604 6.00814L21.4252 9.4099ZM20.2166 10.0581H22.9831V4.44503H20.2166V10.0581ZM22.9831 10.0581C23.1374 10.0581 22.7296 10.0986 22.278 9.68411C21.7809 9.22783 21.7668 8.72202 21.7668 8.71106H27.3798C27.3798 7.7271 27.1007 6.49154 26.0735 5.54877C25.0918 4.6478 23.889 4.44503 22.9831 4.44503V10.0581ZM21.7668 8.71106V21.2148H27.3798V8.71106H21.7668ZM21.7668 21.2148C21.7668 21.2759 21.7534 20.8063 22.2185 20.3412L26.1875 24.3103C27.1463 23.3514 27.3798 22.1411 27.3798 21.2148H21.7668ZM22.2185 20.3412C22.4949 20.0648 22.7762 19.9465 22.929 19.9004C23.0711 19.8575 23.1286 19.8677 23.0485 19.8677V25.4808C23.8794 25.4808 25.1785 25.3193 26.1875 24.3103L22.2185 20.3412ZM30.146 22.3475L29.2057 24.9919L29.232 25.0012L29.2585 25.01L30.146 22.3475ZM28.3597 21.2366L26.4033 23.2488L26.4171 23.2622L26.4311 23.2754L28.3597 21.2366ZM27.0963 19.2325L24.4628 20.2027L24.4702 20.2229L24.478 20.243L27.0963 19.2325ZM26.9656 12.8717L29.7162 13.4293L29.7176 13.4221L26.9656 12.8717ZM28.0112 9.90915L25.5597 8.54277L25.5511 8.5582L25.5427 8.57375L28.0112 9.90915ZM29.9499 7.79615L28.4323 5.43536L28.4225 5.4416L28.4129 5.44792L29.9499 7.79615ZM35.2215 7.36048L33.8657 9.81782L33.9155 9.84529L33.9664 9.87072L35.2215 7.36048ZM35.3958 9.56061L36.873 11.9469L36.8878 11.9377L36.9025 11.9284L35.3958 9.56061ZM31.3223 10.4537L32.9478 12.7416L32.9676 12.7275L32.9871 12.7132L31.3223 10.4537ZM30.2767 12.436L27.5038 12.0028L26.5355 18.1996L31.8013 14.7923L30.2767 12.436ZM31.148 12.0657L31.8564 14.7814L31.9111 14.7671L31.9652 14.7507L31.148 12.0657ZM34.8076 12.4796L33.4922 14.9587L33.5121 14.9693L33.5321 14.9796L34.8076 12.4796ZM36.485 14.2005L33.9934 15.4924L33.9984 15.502L34.0034 15.5115L36.485 14.2005ZM36.376 20.3652L38.7826 21.8092L38.7883 21.7996L38.794 21.7901L36.376 20.3652ZM34.5244 22.1297L35.7598 24.6497L35.7697 24.6449L35.7796 24.6399L34.5244 22.1297ZM33.3046 19.4285L31.4869 17.2901L31.4598 17.3132L31.4332 17.337L33.3046 19.4285ZM33.9145 18.4701L36.6054 19.2674L36.6093 19.2542L36.6131 19.2411L33.9145 18.4701ZM33.9145 15.9214L36.6131 15.1504L36.6131 15.1504L33.9145 15.9214ZM33.3046 14.9193L31.3744 16.9568L31.4004 16.9814L31.4271 17.0054L33.3046 14.9193ZM30.8648 14.9193L29.0876 12.7472L29.0627 12.7676L29.0383 12.7885L30.8648 14.9193ZM30.2113 18.4701L27.5394 19.3289L27.544 19.3432L27.5488 19.3576L30.2113 18.4701ZM30.8648 19.4285L29.0989 21.6099L29.1236 21.6299L29.1488 21.6493L30.8648 19.4285ZM32.15 19.8677C31.772 19.8677 31.4035 19.8083 31.0335 19.685L29.2585 25.01C30.1954 25.3224 31.163 25.4808 32.15 25.4808V19.8677ZM31.0862 19.7032C30.8247 19.6102 30.5611 19.4557 30.2884 19.1977L26.4311 23.2754C27.233 24.034 28.1602 24.6201 29.2057 24.9919L31.0862 19.7032ZM30.3161 19.2243C30.1395 19.0526 29.9192 18.7522 29.7146 18.2219L24.478 20.243C24.9123 21.3683 25.5343 22.4039 26.4033 23.2488L30.3161 19.2243ZM29.7298 18.2622C29.5727 17.836 29.4454 17.1701 29.4454 16.1828H23.8323C23.8323 17.6062 24.0099 18.9734 24.4628 20.2027L29.7298 18.2622ZM29.4454 16.1828C29.4454 15.2311 29.5367 14.3144 29.7162 13.4293L24.215 12.3141C23.9587 13.5783 23.8323 14.869 23.8323 16.1828H29.4454ZM29.7176 13.4221C29.8862 12.5793 30.1464 11.8605 30.4796 11.2445L25.5427 8.57375C24.9174 9.72955 24.4807 10.9857 24.2135 12.3213L29.7176 13.4221ZM30.4626 11.2755C30.7496 10.7606 31.0916 10.4032 31.4869 10.1444L28.4129 5.44792C27.2108 6.23474 26.2602 7.28595 25.5597 8.54277L30.4626 11.2755ZM31.4676 10.1569C31.7386 9.98273 32.1787 9.81848 32.9342 9.81848V4.20541C31.3372 4.20541 29.7877 4.56397 28.4323 5.43536L31.4676 10.1569ZM32.9342 9.81848C33.3994 9.81848 33.7152 9.84374 33.9111 9.87359C33.9569 9.88058 33.9912 9.88708 34.0152 9.89222C34.0393 9.89739 34.0499 9.90052 34.0489 9.90023C34.0481 9.89999 34.0314 9.89508 34.002 9.8833C33.9729 9.87161 33.9257 9.8509 33.8657 9.81782L36.5773 4.90314C35.467 4.2906 34.0468 4.20541 32.9342 4.20541V9.81848ZM33.9664 9.87072C33.7099 9.74249 33.433 9.50692 33.2478 9.16729C33.078 8.85602 33.0685 8.61072 33.0685 8.55857H38.6815C38.6815 7.92553 38.5631 7.1901 38.1755 6.47947C37.7724 5.74047 37.1688 5.19631 36.4766 4.85024L33.9664 9.87072ZM33.0685 8.55857C33.0685 8.47586 33.0823 8.24156 33.2233 7.94672C33.3755 7.62847 33.6162 7.36647 33.889 7.19285L36.9025 11.9284C38.2226 11.0883 38.6815 9.73206 38.6815 8.55857H33.0685ZM33.9185 7.17431C34.0198 7.11162 34.1049 7.07452 34.1613 7.05359C34.2174 7.03276 34.2517 7.02542 34.2568 7.02438C34.2621 7.02328 34.2463 7.02683 34.205 7.03048C34.1641 7.03409 34.1044 7.03726 34.0234 7.03726V12.6503C34.8319 12.6503 35.9124 12.5416 36.873 11.9469L33.9185 7.17431ZM34.0234 7.03726C32.6052 7.03726 30.9499 7.24201 29.6574 8.19432L32.9871 12.7132C32.8628 12.8048 32.8338 12.7781 33.0296 12.7339C33.2201 12.6909 33.5392 12.6503 34.0234 12.6503V7.03726ZM29.6967 8.1659C28.3195 9.14444 27.7193 10.6233 27.5038 12.0028L33.0495 12.8693C33.0862 12.6349 33.1315 12.5487 33.1293 12.5528C33.127 12.5573 33.1122 12.5839 33.0795 12.6222C33.046 12.6613 33.0017 12.7033 32.9478 12.7416L29.6967 8.1659ZM31.8013 14.7923C31.7577 14.8205 31.7628 14.8058 31.8564 14.7814L30.4396 9.35006C29.8652 9.49991 29.2894 9.73203 28.752 10.0798L31.8013 14.7923ZM31.9652 14.7507C31.965 14.7507 31.992 14.7426 32.0534 14.7346C32.1147 14.7266 32.2037 14.7198 32.3243 14.7198V9.10669C31.6729 9.10669 30.9935 9.17909 30.3308 9.38077L31.9652 14.7507ZM32.3243 14.7198C32.8885 14.7198 33.2501 14.8303 33.4922 14.9587L36.1231 10.0005C34.942 9.37372 33.648 9.10669 32.3243 9.10669V14.7198ZM33.5321 14.9796C33.6674 15.0485 33.8264 15.1702 33.9934 15.4924L38.9765 12.9086C38.3303 11.6624 37.3711 10.6368 36.0831 9.97965L33.5321 14.9796ZM34.0034 15.5115C34.1262 15.7438 34.2884 16.2498 34.2884 17.2066H39.9014C39.9014 15.6946 39.657 14.1966 38.9665 12.8895L34.0034 15.5115ZM34.2884 17.2066C34.2884 18.1755 34.1058 18.6897 33.9581 18.9404L38.794 21.7901C39.6047 20.4142 39.9014 18.8227 39.9014 17.2066H34.2884ZM33.9695 18.9213C33.7355 19.3112 33.4985 19.5049 33.2693 19.6194L35.7796 24.6399C37.0607 23.9993 38.0581 23.0166 38.7826 21.8092L33.9695 18.9213ZM33.2891 19.6096C32.9413 19.7801 32.5735 19.8677 32.15 19.8677V25.4808C33.4112 25.4808 34.6263 25.2054 35.7598 24.6497L33.2891 19.6096ZM32.1065 22.6054C33.0366 22.6054 34.2076 22.3865 35.1759 21.5201L31.4332 17.337C31.8497 16.9643 32.2219 16.9923 32.1065 16.9923V22.6054ZM35.1222 21.5669C35.8583 20.9413 36.3463 20.142 36.6054 19.2674L31.2236 17.6728C31.2338 17.6383 31.2579 17.5744 31.3071 17.497C31.3572 17.4183 31.4196 17.3473 31.4869 17.2901L35.1222 21.5669ZM36.6131 19.2411C36.803 18.5762 36.8953 17.8951 36.8953 17.2066H31.2822C31.2822 17.3894 31.2583 17.5507 31.216 17.699L36.6131 19.2411ZM36.8953 17.2066C36.8953 16.5125 36.8053 15.8234 36.6131 15.1504L31.216 16.6924C31.256 16.8326 31.2822 17.0004 31.2822 17.2066H36.8953ZM36.6131 15.1504C36.3645 14.2803 35.8964 13.4762 35.182 12.8333L31.4271 17.0054C31.3693 16.9534 31.3177 16.8911 31.2775 16.8252C31.2382 16.7606 31.2214 16.7114 31.216 16.6924L36.6131 15.1504ZM35.2347 12.8819C34.2682 11.9663 33.0742 11.7207 32.1065 11.7207V17.3338C32.1844 17.3338 31.7891 17.3496 31.3744 16.9568L35.2347 12.8819ZM32.1065 11.7207C31.1049 11.7207 30.0163 11.9873 29.0876 12.7472L32.642 17.0915C32.5119 17.198 32.3752 17.2652 32.26 17.3015C32.1514 17.3358 32.0913 17.3338 32.1065 17.3338V11.7207ZM29.0383 12.7885C28.3141 13.4092 27.8184 14.1946 27.5394 15.0626L32.8832 16.7802C32.8775 16.7981 32.8605 16.8423 32.8235 16.899C32.7858 16.9568 32.7396 17.0088 32.6913 17.0502L29.0383 12.7885ZM27.5394 15.0626C27.3148 15.7614 27.2087 16.4807 27.2087 17.2066H32.8218C32.8218 17.0321 32.8464 16.8946 32.8832 16.7802L27.5394 15.0626ZM27.2087 17.2066C27.2087 17.9279 27.3177 18.6391 27.5394 19.3289L32.8832 17.6112C32.8435 17.4877 32.8218 17.3567 32.8218 17.2066H27.2087ZM27.5488 19.3576C27.8393 20.2292 28.3551 21.0077 29.0989 21.6099L32.6307 17.2472C32.6876 17.2933 32.7441 17.3531 32.7915 17.4227C32.8384 17.4914 32.8628 17.5496 32.8738 17.5826L27.5488 19.3576ZM29.1488 21.6493C30.075 22.365 31.1405 22.6054 32.1065 22.6054V16.9923C32.0773 16.9923 32.1224 16.9886 32.217 17.0168C32.3177 17.0468 32.4488 17.1057 32.5809 17.2078L29.1488 21.6493ZM38.5927 22.0643L36.4011 23.8176L36.4272 23.8502L36.4543 23.882L38.5927 22.0643ZM38.4402 20.2563L36.0753 18.7451L36.054 18.7784L36.0336 18.8124L38.4402 20.2563ZM41.7948 15.0065L39.4386 13.4818L39.4342 13.4885L39.4299 13.4953L41.7948 15.0065ZM42.187 14.4837L40.2024 12.4992L40.2024 12.4992L42.187 14.4837ZM42.5137 14.2658L43.4991 16.8937L42.5137 11.4593V14.2658ZM45.8248 12.0439L47.9109 10.1665L47.9109 10.1665L45.8248 12.0439ZM46.0208 13.852L48.3516 15.4154L48.391 15.3566L48.4274 15.2959L46.0208 13.852ZM42.4701 19.1453L40.1394 17.5819L40.1241 17.6047L40.1093 17.6277L42.4701 19.1453ZM41.577 19.8424L41.0961 17.0774L41.577 22.6489V19.8424ZM39.5076 19.6935C39.7117 19.6935 39.961 19.7371 40.2132 19.8572C40.4617 19.9755 40.631 20.1289 40.7311 20.2467L36.4543 23.882C37.2039 24.7639 38.2753 25.3065 39.5076 25.3065V19.6935ZM40.7842 20.3111C40.8798 20.4306 40.9534 20.5682 40.9992 20.7085C41.0436 20.8446 41.0507 20.9482 41.0507 20.9969H35.4376C35.4376 21.9664 35.7185 22.9642 36.4011 23.8176L40.7842 20.3111ZM41.0507 20.9969C41.0507 21.1844 41.0002 21.4446 40.8468 21.7003L36.0336 18.8124C35.6188 19.5037 35.4376 20.2577 35.4376 20.9969H41.0507ZM40.8051 21.7675L44.1598 16.5177L39.4299 13.4953L36.0753 18.7451L40.8051 21.7675ZM44.1511 16.5311C44.1783 16.4892 44.201 16.4552 44.2196 16.4283C44.2383 16.4012 44.251 16.3838 44.2579 16.3745C44.2652 16.3649 44.2631 16.3682 44.252 16.3813C44.2462 16.3882 44.2369 16.3991 44.2241 16.4131C44.2115 16.427 44.1939 16.4458 44.1715 16.4682L40.2024 12.4992C39.8809 12.8207 39.6187 13.2035 39.4386 13.4818L44.1511 16.5311ZM44.1715 16.4682C44.0345 16.6052 43.8131 16.776 43.4991 16.8937L41.5283 11.638C40.982 11.8429 40.5427 12.1589 40.2024 12.4992L44.1715 16.4682ZM42.5137 11.4593H39.464V17.0724H42.5137V11.4593ZM39.464 11.4593C39.3484 11.4593 39.7854 11.4274 40.2588 11.8584C40.7822 12.3349 40.8111 12.876 40.8111 12.9371H35.198C35.198 13.884 35.4701 15.0895 36.48 16.0089C37.4399 16.8829 38.6067 17.0724 39.464 17.0724V11.4593ZM40.8111 12.9371C40.8111 12.9981 40.7822 13.5392 40.2588 14.0157C39.7854 14.4468 39.3484 14.4148 39.464 14.4148V8.80173C38.6067 8.80173 37.4399 8.99124 36.48 9.86519C35.4701 10.7846 35.198 11.9901 35.198 12.9371H40.8111ZM39.464 14.4148H44.8445V8.80173H39.464V14.4148ZM44.8445 14.4148C44.6862 14.4148 44.4727 14.3835 44.2438 14.2818C44.0148 14.18 43.847 14.0417 43.7387 13.9214L47.9109 10.1665C47.1151 9.2823 46.0291 8.80173 44.8445 8.80173V14.4148ZM43.7387 13.9214C43.6379 13.8094 43.5461 13.6642 43.4845 13.4964C43.424 13.3318 43.4104 13.1944 43.4104 13.1113H49.0234C49.0234 12.0555 48.6739 11.0142 47.9109 10.1665L43.7387 13.9214ZM43.4104 13.1113C43.4104 12.9239 43.4609 12.6637 43.6143 12.408L48.4274 15.2959C48.8422 14.6046 49.0234 13.8506 49.0234 13.1113H43.4104ZM43.6901 12.2885L40.1394 17.5819L44.8009 20.7088L48.3516 15.4154L43.6901 12.2885ZM40.1093 17.6277C40.0878 17.6611 40.3744 17.2029 41.0961 17.0774L42.0579 22.6074C43.4477 22.3657 44.3296 21.4428 44.8309 20.663L40.1093 17.6277ZM41.577 22.6489H45.2802V17.0359H41.577V22.6489ZM45.2802 22.6489C45.3756 22.6489 44.9251 22.6747 44.4523 22.2301C43.947 21.755 43.9332 21.2356 43.9332 21.2148H49.5462C49.5462 20.279 49.2892 19.0735 48.2974 18.1409C47.3381 17.2388 46.1578 17.0359 45.2802 17.0359V22.6489ZM43.9332 21.2148C43.9332 21.1114 43.979 20.5489 44.52 20.0724C44.993 19.6559 45.4156 19.6935 45.2802 19.6935V25.3065C46.1178 25.3065 47.2701 25.1299 48.2296 24.285C49.2572 23.3801 49.5462 22.175 49.5462 21.2148H43.9332ZM45.2802 19.6935H39.5076V25.3065H45.2802V19.6935Z" fill="#FF8C00" mask="url(#path-1-outside-1_965_657)"/>
</svg>
