<svg width="106" height="49" viewBox="0 0 106 49" fill="none"
  xmlns="http://www.w3.org/2000/svg">
  <path d="M80.2785 14.977C79.1255 15.8256 77.6361 16.0605 76.568 16.8472C75.0812 17.9423 72.788 21.5952 71.9163 23.2727C70.6847 25.6415 69.514 28.2994 69.2059 30.9775C70.3552 30.7703 71.4136 30.2204 72.5649 30.0078C74.7499 29.606 77.1352 30.0545 79.2738 30.5964C80.5774 30.9268 81.6772 31.3423 82.8825 31.9259C83.2419 29.9734 86.257 29.3086 87.93 28.9539C90.6008 28.3882 95.5771 27.817 98.1549 28.562C99.76 29.0266 99.9904 31.3082 99.9505 32.72C99.8547 36.1144 98.9796 38.0081 96.6511 40.3685C96.2305 40.7936 95.693 41.1803 95.271 41.6065C96.4442 41.7649 97.6446 41.7922 98.8164 41.9643C100.206 42.1682 101.862 42.4184 103.24 42.69C104.226 42.883 105.571 43.3766 105.648 44.5551C105.777 46.4775 104.437 47.3017 102.655 47.1445C100.781 46.9794 98.7176 46.4026 96.8604 46.1252C94.6156 45.7893 92.1712 45.736 89.9593 45.1262C87.7475 44.5164 87.1789 42.8483 88.5547 40.9792C89.2428 40.0433 91.3037 39.0113 92.306 38.2209C94.036 36.8575 95.5992 35.2943 95.5739 32.915C93.1443 32.783 90.5387 32.8232 88.1852 33.4911C87.2103 33.7678 86.0667 34.4666 85.0737 34.5291C84.2407 34.5807 84.0544 34.0527 83.2441 33.9335C83.1918 37.5814 79.5223 39.5488 76.5171 40.6339C72.2958 42.1589 66.7321 41.8975 64.9101 37.1177C63.775 34.1418 65.0022 28.201 66.079 25.2029C67.4146 21.4838 71.3724 15.0536 74.6026 12.799C75.4894 12.1799 77.0973 11.308 78.2987 11.0722C80.5925 10.6222 82.4808 12.9516 80.7427 14.6914C80.6225 14.8117 80.4228 14.8691 80.2757 14.9768L80.2785 14.977ZM77.8043 34.9369C77.6646 34.7738 75.2401 34.2398 74.8743 34.2284C73.5433 34.1853 71.815 35.2366 70.6044 35.2828C69.8594 35.3123 68.0916 34.1545 69.3389 35.9216C70.8251 38.0264 75.3996 36.4975 77.2261 35.4349C77.2798 35.4036 77.8296 34.9648 77.8058 34.9357L77.8043 34.9369Z" fill="#FF8C00"/>
  <path d="M24.0349 30.114L24.3303 30.0549C25.0678 28.9199 26.8291 28.4109 27.8156 29.5102C28.5682 30.3483 28.5984 32.4804 28.8756 33.6311C29.549 36.4159 31.2929 40.5997 32.8694 42.9964C33.5003 43.9559 34.7797 44.8242 35.0687 45.9564C35.5891 47.994 33.1707 49.1986 31.4949 48.2456C31.3898 48.1859 30.3872 47.206 30.2742 47.0708C29.0268 45.5725 28.0907 43.8408 27.239 42.095C26.875 41.3494 26.5035 40.5508 26.1916 39.7611C26.0258 39.3392 25.8816 38.911 25.7389 38.4817C25.7001 38.3652 25.3427 37.6357 25.3928 37.5717L22.6597 41.0258C19.1888 44.7199 16.0082 44.5929 11.1937 43.8941C7.51258 43.3609 3.44321 42.0698 1.71572 38.4815C-1.27145 32.2792 3.94683 25.4588 10.309 24.8179C13.5859 24.4875 20.0103 25.5739 22.4995 27.8538C23.0544 28.3623 23.8145 29.3926 24.0333 30.1167L24.0349 30.114ZM20.291 32.7972C20.1277 32.6175 19.8996 31.8334 19.6066 31.5029C18.0807 29.7797 13.2401 29.0756 11.0375 29.3026C8.60205 29.5527 5.84872 31.2822 5.40901 33.8276C5.19462 35.0739 5.30706 35.862 6.02186 36.8807C6.78715 37.9719 8.1113 38.6321 9.36356 38.9981C11.617 39.6558 15.7705 40.3868 17.8738 39.3112C18.5507 38.9652 20.3794 36.8658 20.8752 36.1808C21.1655 35.7778 22.1989 34.2547 22.3294 33.8919C22.415 33.6542 22.4265 33.6372 22.2165 33.4599C21.7445 33.7377 20.5848 33.1206 20.2923 32.7987L20.291 32.7972Z" fill="#FF8C00"/>
  <path d="M58.0705 41.9069C56.884 42.9942 55.0022 42.2316 54.4478 40.8294C53.0525 37.3081 54.4084 27.0389 54.9576 23.0032C55.7093 17.4749 57.2535 12.4002 58.3846 7.02681C58.7224 5.41836 58.5116 1.67372 60.9473 1.71643C62.4766 1.74429 63.1941 2.65192 63.1805 4.12539C63.147 7.68366 61.8023 11.0572 61.0187 14.4714C59.8709 19.476 59.3586 24.3515 58.8238 29.4539C58.5567 32.0009 57.9926 34.6097 58.246 37.209C58.4175 38.9541 59.6622 40.4508 58.0718 41.9084L58.0705 41.9069Z" fill="#FF8C00"/>
  <path d="M43.233 39.5954C43.5052 40.726 44.3008 42.1045 44.5045 43.345C44.7513 44.8417 43.8241 45.8647 42.3331 45.8631C40.6142 45.8613 40.0797 44.2754 39.6002 42.885C38.2252 38.8915 37.8555 33.8406 38.1308 29.6325C38.216 28.3294 38.4413 24.6806 39.2206 23.7595C40.0859 22.7372 41.7566 22.8271 42.5614 23.9575C43.2185 24.8802 42.9763 26.4601 42.8817 27.5061C42.688 29.6426 42.3862 31.7218 42.4918 33.8727C42.5859 35.7875 42.7842 37.7282 43.233 39.5954Z" fill="#FF8C00"/>
  <path d="M38.0695 0.460252C38.8216 0.936611 39.1626 1.96991 39.0725 2.8291C39.0633 2.92109 39.0486 3.01253 39.0285 3.10186C38.9956 3.24777 38.9503 3.39101 38.8903 3.52851C38.5369 4.33603 37.7359 4.82723 36.8595 4.80706C36.7319 4.80412 36.6038 4.79124 36.4782 4.76884C34.8061 4.48179 34.0608 2.07969 35.1866 0.841478C35.5451 0.446767 35.9083 0.173539 36.4572 0.137035C36.862 0.109997 37.3253 0.156387 37.7101 0.28777C37.8391 0.331654 37.9598 0.39017 38.0709 0.460392L38.0695 0.460252Z" fill="#FF8C00"/>
</svg>