<svg width="64" height="24" viewBox="0 0 64 24" fill="none" xmlns="http://www.w3.org/2000/svg">
<g id="logo oj 1" clip-path="url(#clip0_156_766)">
<g id="layer1">
<g id="g3301">
<path id="path3198" d="M50.9926 6.53281V8.26528V9.99776L54.9419 10.0216L58.8912 10.0455L58.2701 10.7993C57.6113 11.5991 56.0071 13.5406 52.8684 17.3369L50.9468 19.6613V21.3567C50.9468 22.2893 50.9744 23.0801 51.0082 23.1139C51.042 23.1476 53.9041 23.1648 57.3685 23.152L63.667 23.1284L63.692 21.3732L63.7166 19.6179H59.7481C57.5654 19.6179 55.7796 19.5965 55.7796 19.5702C55.7796 19.544 56.0802 19.1644 56.4474 18.7268C56.9722 18.1012 61.399 12.768 63.3647 10.393L63.7169 9.9676L63.692 8.2502L63.6673 6.53281H57.3298H50.9926ZM51.1291 9.85137C51.1349 9.85493 51.1412 9.85772 51.1472 9.86097H51.1291V9.85137ZM51.1902 22.9302C51.1918 22.9308 51.1934 22.9313 51.195 22.9318C51.1947 22.9317 51.1902 22.9317 51.1902 22.9316C51.1901 22.9314 51.1903 22.9304 51.1902 22.9302Z" fill="#F98C13"/>
<path id="path3196" d="M8.81135 5.87543C7.06778 5.8969 5.29555 6.38564 3.89189 7.33652C-2.55709 11.7053 -0.628766 21.6286 7.00376 23.3512C9.04959 23.8128 11.4907 23.4112 13.3147 22.3129L13.8226 22.0069L13.8495 22.5675L13.8766 23.1284H15.7459H17.6152L17.6385 14.762L17.6618 6.396H15.7462H13.8309V6.90368V7.41136L13.5587 7.21755C12.2698 6.29981 10.5549 5.85397 8.81135 5.87543ZM8.85741 9.72553C10.3699 9.71625 11.9025 10.3865 12.9361 11.8963C14.9737 14.8728 13.1977 19.015 9.62907 19.6091C9.03215 19.7085 8.66258 19.7205 8.31436 19.6519C8.21406 19.6322 7.90625 19.5711 7.63042 19.5162C5.50857 19.0938 3.86009 16.9826 3.86502 14.6938C3.87159 11.6441 6.33661 9.741 8.85741 9.72553Z" fill="#F98C13"/>
<path id="path3194" d="M26.332 0.481447C25.0793 0.481736 24.9425 0.515158 24.8862 0.627282C24.8245 0.750352 24.8038 3.23572 24.8588 3.91104C24.8657 3.9959 25.1709 4.02507 26.0534 4.02507H27.2388V13.5389C27.2388 18.7714 27.2671 23.0805 27.3015 23.1149C27.336 23.1494 28.1874 23.1666 29.1936 23.153L31.0231 23.1284V11.8215V0.514618L27.9951 0.490491C27.2913 0.484905 26.7495 0.481352 26.332 0.481447Z" fill="#F98C13"/>
<path id="path442" d="M43.5245 0.468867C41.1856 0.468867 41.3342 0.436422 40.8825 1.04672C40.7651 1.20537 39.3222 3.14054 37.6761 5.34721C36.0299 7.55389 34.4584 9.68783 34.1837 10.089C30.5952 15.3307 33.2018 22.0131 39.3767 23.4025C40.9448 23.7554 43.3742 23.4536 44.922 22.7136C52.6515 19.0184 50.7518 7.70057 42.2252 6.64712L41.3 6.53281L42.8913 4.48097C45.6317 0.948098 45.7735 0.754248 45.7173 0.607847C45.6717 0.488942 45.3562 0.468867 43.5245 0.468867ZM45.5591 0.696939H45.5646L45.5609 0.701607C45.5605 0.699857 45.5596 0.698689 45.5591 0.696939ZM41.206 10.2003C42.85 10.2039 44.496 11.0659 45.3491 12.8396C46.6517 15.5478 45.4745 18.6756 42.7616 19.7147C39.0483 21.137 35.4771 17.3758 36.7824 13.4172C37.4823 11.2946 39.3428 10.1962 41.206 10.2003Z" fill="#F98C13"/>
<path id="path3196-3" d="M19.5374 22.0084L19.5528 23.1221L19.9155 23.1298H21.4605H23.3297L23.353 14.7635L23.3763 6.39746H21.4608H19.5456V6.90514V7.41282C19.5463 8.95579 19.5377 21.5074 19.5374 22.0084Z" fill="#F98C13"/>
<path id="path3293" d="M21.3219 5.35829C22.6772 5.35829 23.7759 4.25961 23.7759 2.90431C23.7759 1.54901 22.6772 0.450317 21.3219 0.450317C19.9666 0.450317 18.8679 1.54901 18.8679 2.90431C18.8679 4.25961 19.9666 5.35829 21.3219 5.35829Z" fill="#F98C13"/>
</g>
</g>
</g>
<defs>
<clipPath id="clip0_156_766">
<rect width="63.7169" height="23.0994" fill="white" transform="translate(0 0.450287)"/>
</clipPath>
</defs>
</svg>
