<svg width="16" height="20" viewBox="0 0 16 20" fill="none" xmlns="http://www.w3.org/2000/svg">
<path d="M7.9955 19.4916C10.9536 19.4916 13.3403 17.1008 13.3403 14.146C13.3403 11.1828 10.9536 8.79198 7.9955 8.79198C5.04575 8.79198 2.65906 11.1828 2.65906 14.146C2.65906 17.1008 5.04575 19.4916 7.9955 19.4916ZM6.47441 16.8988C6.15506 17.1345 5.8189 16.8903 5.94497 16.52L6.55003 14.71L5.00373 13.6072C4.70959 13.3884 4.80204 12.9759 5.20541 12.9759L7.10468 12.9927L7.68455 11.1743C7.80222 10.804 8.20559 10.804 8.32325 11.1743L8.90312 12.9927L10.8024 12.9759C11.2058 12.9759 11.2898 13.3968 11.0041 13.5988L9.45778 14.71L10.0628 16.52C10.1889 16.8903 9.85274 17.1345 9.53339 16.8988L8.0039 15.7791L6.47441 16.8988ZM2.87756 10.1389C3.70114 9.09504 4.83566 8.30373 6.13825 7.91647L2.33131 1.06402L0.121102 4.43973C-0.030167 4.65863 -0.0385709 4.90276 0.0958904 5.12163L2.87756 10.1389ZM6.11304 5.04586H9.88636L12.4495 0.5H3.54985L6.11304 5.04586ZM9.86115 7.91647C11.1721 8.30373 12.2983 9.09504 13.1218 10.1389L15.9119 5.12163C16.038 4.90276 16.0296 4.65863 15.8783 4.43973L13.6681 1.06402L9.86115 7.91647Z" fill="#858585"/>
</svg>
