<svg width="25" height="27" viewBox="0 0 25 27" fill="none" xmlns="http://www.w3.org/2000/svg">
<path d="M0 18.3798C0 22.1413 2.34653 25.2928 5.49212 25.2928H7.72451C5.44142 23.628 4.5028 21.1119 4.5028 18.2527C4.51548 15.0758 5.74583 12.8011 6.83663 11.4286H5.02285C2.19432 11.4286 0 14.4785 0 18.3798ZM6.25319 18.2781C6.25319 22.9164 9.86811 26.5 15.7661 26.5H17.4911C19.1274 26.5 20.345 26.3856 21.0299 26.195C22.0193 25.9536 22.9706 25.3436 22.9706 24.1491C22.9706 23.6535 22.8438 23.2977 22.6915 23.0308C22.5901 22.8656 22.6154 22.7385 22.7677 22.675C23.5541 22.3446 24.2009 21.6075 24.2009 20.6036C24.2009 20.0318 24.036 19.5235 23.757 19.1804C23.6175 18.9898 23.6302 18.8118 23.8711 18.6847C24.4292 18.3543 24.8351 17.6427 24.8351 16.8167C24.8351 16.2194 24.6449 15.5968 24.3151 15.2918C24.1122 15.1139 24.1502 14.9868 24.3531 14.7962C24.7463 14.4658 25 13.8939 25 13.1696C25 11.9497 24.0487 10.9457 22.793 10.9457H18.3283C17.1994 10.9457 16.451 10.3612 16.451 9.42082C16.451 7.73069 18.5693 4.60459 18.5693 2.36804C18.5693 1.18622 17.8082 0.5 16.8189 0.5C15.9057 0.5 15.4617 1.12268 14.9797 2.07576C13.0898 5.74829 10.5784 8.72191 8.66314 11.2635C7.03959 13.4237 6.25319 15.2918 6.25319 18.2781Z" fill="#935DEA"/>
</svg>
